<?xml version="1.0" encoding="UTF-8" standalone="no"?>
<svg
   xmlns:dc="http://purl.org/dc/elements/1.1/"
   xmlns:cc="http://creativecommons.org/ns#"
   xmlns:rdf="http://www.w3.org/1999/02/22-rdf-syntax-ns#"
   xmlns:svg="http://www.w3.org/2000/svg"
   xmlns="http://www.w3.org/2000/svg"
   xmlns:sodipodi="http://sodipodi.sourceforge.net/DTD/sodipodi-0.dtd"
   xmlns:inkscape="http://www.inkscape.org/namespaces/inkscape"
   width="300"
   height="300"
   viewBox="0 0 79.374998 79.375002"
   version="1.1"
   id="svg1423"
   inkscape:version="1.0 (4035a4fb49, 2020-05-01)"
   sodipodi:docname="procedural_decomposition_is_not_heirarchial.svg">
  <defs
     id="defs1417">
    <marker
       inkscape:stockid="Arrow1Lend"
       orient="auto"
       refY="0.0"
       refX="0.0"
       id="marker7292"
       style="overflow:visible;"
       inkscape:isstock="true">
      <path
         id="path7290"
         d="M 0.0,0.0 L 5.0,-5.0 L -12.5,0.0 L 5.0,5.0 L 0.0,0.0 z "
         style="fill-rule:evenodd;stroke:#000000;stroke-width:1pt;stroke-opacity:1;fill:#000000;fill-opacity:1"
         transform="scale(0.8) rotate(180) translate(12.5,0)" />
    </marker>
    <marker
       inkscape:stockid="Arrow1Lend"
       orient="auto"
       refY="0.0"
       refX="0.0"
       id="marker6461"
       style="overflow:visible;"
       inkscape:isstock="true">
      <path
         id="path6459"
         d="M 0.0,0.0 L 5.0,-5.0 L -12.5,0.0 L 5.0,5.0 L 0.0,0.0 z "
         style="fill-rule:evenodd;stroke:#000000;stroke-width:1pt;stroke-opacity:1;fill:#000000;fill-opacity:1"
         transform="scale(0.8) rotate(180) translate(12.5,0)" />
    </marker>
    <marker
       inkscape:stockid="Arrow1Lend"
       orient="auto"
       refY="0.0"
       refX="0.0"
       id="marker6226"
       style="overflow:visible;"
       inkscape:isstock="true">
      <path
         id="path6224"
         d="M 0.0,0.0 L 5.0,-5.0 L -12.5,0.0 L 5.0,5.0 L 0.0,0.0 z "
         style="fill-rule:evenodd;stroke:#000000;stroke-width:1pt;stroke-opacity:1;fill:#000000;fill-opacity:1"
         transform="scale(0.8) rotate(180) translate(12.5,0)" />
    </marker>
    <marker
       inkscape:collect="always"
       inkscape:isstock="true"
       style="overflow:visible;"
       id="marker5986"
       refX="0.0"
       refY="0.0"
       orient="auto"
       inkscape:stockid="Arrow1Lend">
      <path
         transform="scale(0.8) rotate(180) translate(12.5,0)"
         style="fill-rule:evenodd;stroke:#000000;stroke-width:1pt;stroke-opacity:1;fill:#000000;fill-opacity:1"
         d="M 0.0,0.0 L 5.0,-5.0 L -12.5,0.0 L 5.0,5.0 L 0.0,0.0 z "
         id="path5984" />
    </marker>
    <marker
       inkscape:collect="always"
       inkscape:stockid="Arrow1Lend"
       orient="auto"
       refY="0.0"
       refX="0.0"
       id="marker4160"
       style="overflow:visible;"
       inkscape:isstock="true">
      <path
         id="path4158"
         d="M 0.0,0.0 L 5.0,-5.0 L -12.5,0.0 L 5.0,5.0 L 0.0,0.0 z "
         style="fill-rule:evenodd;stroke:#000000;stroke-width:1pt;stroke-opacity:1;fill:#000000;fill-opacity:1"
         transform="scale(0.8) rotate(180) translate(12.5,0)" />
    </marker>
    <marker
       inkscape:stockid="Arrow1Lend"
       orient="auto"
       refY="0.0"
       refX="0.0"
       id="marker4052"
       style="overflow:visible;"
       inkscape:isstock="true">
      <path
         id="path4050"
         d="M 0.0,0.0 L 5.0,-5.0 L -12.5,0.0 L 5.0,5.0 L 0.0,0.0 z "
         style="fill-rule:evenodd;stroke:#000000;stroke-width:1pt;stroke-opacity:1;fill:#000000;fill-opacity:1"
         transform="scale(0.8) rotate(180) translate(12.5,0)" />
    </marker>
    <marker
       inkscape:stockid="Arrow1Lend"
       orient="auto"
       refY="0.0"
       refX="0.0"
       id="marker3932"
       style="overflow:visible;"
       inkscape:isstock="true">
      <path
         id="path3930"
         d="M 0.0,0.0 L 5.0,-5.0 L -12.5,0.0 L 5.0,5.0 L 0.0,0.0 z "
         style="fill-rule:evenodd;stroke:#000000;stroke-width:1pt;stroke-opacity:1;fill:#000000;fill-opacity:1"
         transform="scale(0.8) rotate(180) translate(12.5,0)" />
    </marker>
    <marker
       inkscape:stockid="Arrow1Lend"
       orient="auto"
       refY="0.0"
       refX="0.0"
       id="marker3836"
       style="overflow:visible;"
       inkscape:isstock="true">
      <path
         id="path3834"
         d="M 0.0,0.0 L 5.0,-5.0 L -12.5,0.0 L 5.0,5.0 L 0.0,0.0 z "
         style="fill-rule:evenodd;stroke:#000000;stroke-width:1pt;stroke-opacity:1;fill:#000000;fill-opacity:1"
         transform="scale(0.8) rotate(180) translate(12.5,0)" />
    </marker>
    <marker
       inkscape:stockid="Arrow1Lend"
       orient="auto"
       refY="0.0"
       refX="0.0"
       id="marker3716"
       style="overflow:visible;"
       inkscape:isstock="true">
      <path
         id="path3714"
         d="M 0.0,0.0 L 5.0,-5.0 L -12.5,0.0 L 5.0,5.0 L 0.0,0.0 z "
         style="fill-rule:evenodd;stroke:#000000;stroke-width:1pt;stroke-opacity:1;fill:#000000;fill-opacity:1"
         transform="scale(0.8) rotate(180) translate(12.5,0)" />
    </marker>
    <marker
       inkscape:stockid="Arrow1Lend"
       orient="auto"
       refY="0.0"
       refX="0.0"
       id="marker3632"
       style="overflow:visible;"
       inkscape:isstock="true">
      <path
         id="path3630"
         d="M 0.0,0.0 L 5.0,-5.0 L -12.5,0.0 L 5.0,5.0 L 0.0,0.0 z "
         style="fill-rule:evenodd;stroke:#000000;stroke-width:1pt;stroke-opacity:1;fill:#000000;fill-opacity:1"
         transform="scale(0.8) rotate(180) translate(12.5,0)" />
    </marker>
    <marker
       inkscape:isstock="true"
       style="overflow:visible;"
       id="marker2846"
       refX="0.0"
       refY="0.0"
       orient="auto"
       inkscape:stockid="Arrow1Lend">
      <path
         transform="scale(0.8) rotate(180) translate(12.5,0)"
         style="fill-rule:evenodd;stroke:#000000;stroke-width:1pt;stroke-opacity:1;fill:#000000;fill-opacity:1"
         d="M 0.0,0.0 L 5.0,-5.0 L -12.5,0.0 L 5.0,5.0 L 0.0,0.0 z "
         id="path2844" />
    </marker>
    <marker
       inkscape:stockid="Arrow1Lend"
       orient="auto"
       refY="0.0"
       refX="0.0"
       id="marker2327"
       style="overflow:visible;"
       inkscape:isstock="true">
      <path
         id="path2325"
         d="M 0.0,0.0 L 5.0,-5.0 L -12.5,0.0 L 5.0,5.0 L 0.0,0.0 z "
         style="fill-rule:evenodd;stroke:#000000;stroke-width:1pt;stroke-opacity:1;fill:#000000;fill-opacity:1"
         transform="scale(0.8) rotate(180) translate(12.5,0)" />
    </marker>
    <marker
       inkscape:stockid="Arrow1Lend"
       orient="auto"
       refY="0.0"
       refX="0.0"
       id="marker2236"
       style="overflow:visible;"
       inkscape:isstock="true">
      <path
         id="path2234"
         d="M 0.0,0.0 L 5.0,-5.0 L -12.5,0.0 L 5.0,5.0 L 0.0,0.0 z "
         style="fill-rule:evenodd;stroke:#000000;stroke-width:1pt;stroke-opacity:1;fill:#000000;fill-opacity:1"
         transform="scale(0.8) rotate(180) translate(12.5,0)" />
    </marker>
    <marker
       inkscape:stockid="Arrow1Lend"
       orient="auto"
       refY="0.0"
       refX="0.0"
       id="marker2169"
       style="overflow:visible;"
       inkscape:isstock="true">
      <path
         id="path2167"
         d="M 0.0,0.0 L 5.0,-5.0 L -12.5,0.0 L 5.0,5.0 L 0.0,0.0 z "
         style="fill-rule:evenodd;stroke:#000000;stroke-width:1pt;stroke-opacity:1;fill:#000000;fill-opacity:1"
         transform="scale(0.8) rotate(180) translate(12.5,0)" />
    </marker>
    <marker
       inkscape:stockid="Arrow1Lend"
       orient="auto"
       refY="0"
       refX="0"
       id="Arrow1Lend-8"
       style="overflow:visible"
       inkscape:isstock="true">
      <path
         id="path840-5"
         d="M 0,0 5,-5 -12.5,0 5,5 Z"
         style="fill:#000000;fill-opacity:1;fill-rule:evenodd;stroke:#000000;stroke-width:1pt;stroke-opacity:1"
         transform="matrix(-0.8,0,0,-0.8,-10,0)" />
    </marker>
    <marker
       inkscape:stockid="Arrow1Lend"
       orient="auto"
       refY="0"
       refX="0"
       id="Arrow1Lend-2"
       style="overflow:visible"
       inkscape:isstock="true">
      <path
         id="path840-1"
         d="M 0,0 5,-5 -12.5,0 5,5 Z"
         style="fill:#000000;fill-opacity:1;fill-rule:evenodd;stroke:#000000;stroke-width:1pt;stroke-opacity:1"
         transform="matrix(-0.8,0,0,-0.8,-10,0)" />
    </marker>
    <marker
       inkscape:stockid="Arrow1Lend"
       orient="auto"
       refY="0"
       refX="0"
       id="Arrow1Lend-25"
       style="overflow:visible"
       inkscape:isstock="true">
      <path
         id="path840-3"
         d="M 0,0 5,-5 -12.5,0 5,5 Z"
         style="fill:#000000;fill-opacity:1;fill-rule:evenodd;stroke:#000000;stroke-width:1pt;stroke-opacity:1"
         transform="matrix(-0.8,0,0,-0.8,-10,0)" />
    </marker>
    <marker
       inkscape:stockid="Arrow1Lend"
       orient="auto"
       refY="0"
       refX="0"
       id="Arrow1Lend-0"
       style="overflow:visible"
       inkscape:isstock="true">
      <path
         id="path840-0"
         d="M 0,0 5,-5 -12.5,0 5,5 Z"
         style="fill:#000000;fill-opacity:1;fill-rule:evenodd;stroke:#000000;stroke-width:1pt;stroke-opacity:1"
         transform="matrix(-0.8,0,0,-0.8,-10,0)" />
    </marker>
    <filter
       id="filter5937"
       style="color-interpolation-filters:sRGB;"
       x="-0.15"
       width="1.3"
       y="-0.15"
       height="1.3"
       inkscape:menu-tooltip="Ink paint on paper with some turbulent color shift"
       inkscape:menu="Textures"
       inkscape:label="Ink Paint">
      <feTurbulence
         id="feTurbulence5925"
         result="result0"
         numOctaves="4"
         baseFrequency="0.07"
         type="fractalNoise" />
      <feDisplacementMap
         id="feDisplacementMap5927"
         result="result2"
         scale="10"
         yChannelSelector="G"
         xChannelSelector="R"
         in="SourceGraphic"
         in2="result0" />
      <feBlend
         id="feBlend5929"
         in2="result2"
         mode="multiply"
         in="result2"
         result="result5" />
      <feGaussianBlur
         id="feGaussianBlur5931"
         result="result4"
         in="result2"
         stdDeviation="10" />
      <feComposite
         id="feComposite5933"
         result="result6"
         k1="2"
         k3="0.5"
         in="result0"
         in2="result4"
         operator="arithmetic" />
      <feComposite
         id="feComposite5935"
         result="result7"
         in="result6"
         in2="result5"
         operator="in" />
    </filter>
    <filter
       id="filter5953"
       style="color-interpolation-filters:sRGB;"
       x="-0.15"
       width="1.3"
       y="-0.15"
       height="1.3"
       inkscape:menu-tooltip="Ink paint on paper with some turbulent color shift"
       inkscape:menu="Textures"
       inkscape:label="Ink Paint">
      <feTurbulence
         id="feTurbulence5941"
         result="result0"
         numOctaves="4"
         baseFrequency="0.07"
         type="fractalNoise" />
      <feDisplacementMap
         id="feDisplacementMap5943"
         result="result2"
         scale="10"
         yChannelSelector="G"
         xChannelSelector="R"
         in="SourceGraphic"
         in2="result0" />
      <feBlend
         id="feBlend5945"
         in2="result2"
         mode="multiply"
         in="result2"
         result="result5" />
      <feGaussianBlur
         id="feGaussianBlur5947"
         result="result4"
         in="result2"
         stdDeviation="10" />
      <feComposite
         id="feComposite5949"
         result="result6"
         k1="2"
         k3="0.5"
         in="result0"
         in2="result4"
         operator="arithmetic" />
      <feComposite
         id="feComposite5951"
         result="result7"
         in="result6"
         in2="result5"
         operator="in" />
    </filter>
    <marker
       inkscape:stockid="Arrow1Lend"
       orient="auto"
       refY="0"
       refX="0"
       id="marker5986-7"
       style="overflow:visible"
       inkscape:isstock="true">
      <path
         id="path5984-3"
         d="M 0,0 5,-5 -12.5,0 5,5 Z"
         style="fill:#000000;fill-opacity:1;fill-rule:evenodd;stroke:#000000;stroke-width:1pt;stroke-opacity:1"
         transform="matrix(-0.8,0,0,-0.8,-10,0)" />
    </marker>
    <marker
       inkscape:stockid="Arrow1Lend"
       orient="auto"
       refY="0"
       refX="0"
       id="marker5986-9"
       style="overflow:visible"
       inkscape:isstock="true">
      <path
         id="path5984-8"
         d="M 0,0 5,-5 -12.5,0 5,5 Z"
         style="fill:#000000;fill-opacity:1;fill-rule:evenodd;stroke:#000000;stroke-width:1pt;stroke-opacity:1"
         transform="matrix(-0.8,0,0,-0.8,-10,0)" />
    </marker>
    <marker
       inkscape:stockid="Arrow1Lend"
       orient="auto"
       refY="0"
       refX="0"
       id="marker5986-2"
       style="overflow:visible"
       inkscape:isstock="true">
      <path
         id="path5984-4"
         d="M 0,0 5,-5 -12.5,0 5,5 Z"
         style="fill:#000000;fill-opacity:1;fill-rule:evenodd;stroke:#000000;stroke-width:1pt;stroke-opacity:1"
         transform="matrix(-0.8,0,0,-0.8,-10,0)" />
    </marker>
    <marker
       inkscape:stockid="Arrow1Lend"
       orient="auto"
       refY="0"
       refX="0"
       id="marker5986-27"
       style="overflow:visible"
       inkscape:isstock="true">
      <path
         id="path5984-9"
         d="M 0,0 5,-5 -12.5,0 5,5 Z"
         style="fill:#000000;fill-opacity:1;fill-rule:evenodd;stroke:#000000;stroke-width:1pt;stroke-opacity:1"
         transform="matrix(-0.8,0,0,-0.8,-10,0)" />
    </marker>
  </defs>
  <sodipodi:namedview
     inkscape:window-maximized="0"
     inkscape:window-y="0"
     inkscape:window-x="0"
     inkscape:window-height="1034"
     inkscape:window-width="1905"
     units="px"
     showgrid="false"
     inkscape:document-rotation="0"
     inkscape:current-layer="layer1"
     inkscape:document-units="mm"
     inkscape:cy="191.6002"
     inkscape:cx="113.1342"
     inkscape:zoom="2.7066667"
     inkscape:pageshadow="2"
     inkscape:pageopacity="0.0"
     borderopacity="1.0"
     bordercolor="#666666"
     pagecolor="#ffffff"
     id="base" />
  <metadata
     id="metadata1420">
    <rdf:RDF>
      <cc:Work
         rdf:about="">
        <dc:format>image/svg+xml</dc:format>
        <dc:type
           rdf:resource="http://purl.org/dc/dcmitype/StillImage" />
        <dc:title></dc:title>
      </cc:Work>
    </rdf:RDF>
  </metadata>
  <g
     id="layer1"
     inkscape:groupmode="layer"
     inkscape:label="Layer 1">
    <rect
       transform="matrix(1.0823296,0,0,1.0823296,-3.2674514,-3.2674514)"
       y="0.13411701"
       x="0.13411701"
       height="79.106766"
       width="79.106766"
       id="rect5939"
       style="font-variation-settings:normal;opacity:1;vector-effect:none;fill:#00c3ff;fill-opacity:1;stroke:none;stroke-width:0.268234px;stroke-linecap:butt;stroke-linejoin:miter;stroke-miterlimit:4;stroke-dasharray:none;stroke-dashoffset:0;stroke-opacity:1;marker-end:url(#Arrow1Lend);filter:url(#filter5953);stop-color:#000000;stop-opacity:1" />
    <g
       transform="translate(21.805316,2.6686396)"
       inkscape:connector-avoid="true"
       id="g2048">
      <path
         d="m 24.0471,31.5252 0.5184,-0.0762 0.5135,-0.1046 0.4934,0.1984 0.5314,0.0183 0.4959,-0.1487 0.5164,-0.0359 0.4846,-0.1851 0.5159,-0.0549 0.4754,0.2104 0.4232,0.302 0.534,-0.0081 0.4715,0.2511 0.5216,0.0861 0.4821,0.2171 0.3047,0.4468 0.4802,0.2485 0.5088,0.1519 0.5173,-0.1194 0.4557,-0.2376 0.4759,-0.194 0.518,0.085 0.4553,0.2611 0.5196,-0.0266 0.498,-0.1509 0.4771,0.1891 0.4379,0.2675 0.5113,0.0215 0.5114,-0.0163 0.5093,-0.0683 0.4872,0.1634 0.4963,-0.0659 0.4991,-0.0405 0.4273,0.2901 0.5019,0.1219 0.4903,0.1572 0.5149,-0.0067 0.4985,0.1129 0.5087,0.0498 0.4822,-0.214 0.525,0.0514 0.4824,-0.134 0.4949,-0.0757 0.494,-0.0787 0.4989,-0.0355 0.5037,0.0061 0.5009,0.0537 0.4912,-0.1099 0.4964,-0.083 0.4541,-0.311 0.5299,-0.1485 0.5385,-0.1476 0.5469,0.1128 0.4481,-0.2957 0.3566,-0.4012 0.3501,-0.4025 0.3994,-0.3535 0.5231,0.0817 0.5106,0.1404 0.4923,-0.2144 0.5362,-0.0305 0.463,0.2775 0.5202,0.1438 0.5277,-0.0893 0.5325,-0.0528 0.0825,0.2717 -0.0259,0.2828 0.0808,0.2669 0.0995,0.2605 -0.0452,0.2841 0.0125,0.2875 -0.1165,0.2654 -0.193,0.2163 -0.163,0.2207 -0.0544,0.2689 -0.1464,0.2272 -0.0809,0.2578 -0.0847,0.2547 -0.1004,0.2489 -0.0023,0.2755 -0.1249,0.2457 0.1522,0.2257 0.0744,0.262 0.0132,0.2687 0.0295,0.2674 0.2045,0.1876 0.1033,0.2575 0.0728,0.2616 0.0273,0.2702 -0.0169,0.2713 0.1021,0.252 0.1105,0.2428 0.0557,0.2607 0.1356,0.2406 -0.0119,0.2758 0.1345,0.2306 0.0843,0.2532 0.0892,0.2526 0.0498,0.2632 -0.0386,0.2654 0.0112,0.2681 -0.1192,0.2437 -0.0086,0.2711 -0.1521,0.221 -0.0806,0.2558 0.1195,0.2375 0.0985,0.2468 0.0692,0.2565 0.0536,0.2603 -0.0114,0.2746 0.0638,0.2674 -0.1552,0.2307 -0.05,0.2737 -0.1199,0.2477 -0.2046,0.184 -0.0188,0.2737 -0.1129,0.2501 0.0536,0.2701 -0.0789,0.2638 -0.0714,0.258 -0.0987,0.2488 0.061,0.2611 0.1281,0.2355 0.0103,0.2663 0.0496,0.2617 0.0627,0.2587 0.0303,0.2645 -0.0169,0.2651 -0.0214,0.2648 -0.5218,0.0637 -0.51,-0.1273 -0.4611,0.2696 -0.534,0.0101 -0.4997,-0.1462 -0.4685,-0.2272 -0.519,-0.0257 -0.5186,0.0355 -0.5229,-0.0932 -0.5307,0.0197 -0.4846,0.2357 -0.5382,0.0284 -0.487,-0.2038 -0.5178,-0.1024 -0.4572,-0.2589 -0.4431,-0.2825 -0.4905,0.1764 -0.4619,0.2416 -0.4764,0.209 -0.4872,0.1824 -0.5429,0.048 -0.5036,0.2082 -0.4873,-0.2513 -0.5456,-0.0552 -0.5131,0.1286 -0.4963,0.183 -0.5302,0.0135 -0.5192,0.1086 -0.307,0.4511 -0.4944,0.2308 -0.4078,0.334 -0.3628,0.3825 -0.503,-0.0447 -0.4891,0.1253 -0.4728,-0.1893 -0.5086,0.0229 -0.4997,0.1058 -0.4876,-0.1516 -0.4909,0.135 -0.4971,-0.1095 -0.5067,0.1269 -0.5042,-0.1362 -0.4503,-0.2446 -0.5053,-0.0851 -0.4723,0.1946 -0.5107,-0.0096 -0.4958,0.1095 -0.5035,-0.0653 -0.4038,-0.3225 -0.5096,-0.0864 -0.4813,-0.1861 -0.512,0.0641 -0.5097,0.0543 -0.5056,-0.0838 -0.3878,-0.3539 -0.5113,-0.119 -0.4536,-0.275 -0.5299,-0.0243 -0.5281,-0.007 -0.4756,0.2297 -0.4839,-0.1844 -0.5123,0.0757 -0.4201,-0.3069 -0.5182,-0.0453 0.1171,-0.2518 0.1761,-0.2148 0.0823,-0.263 0.0972,-0.258 -0.0351,-0.276 0.0497,-0.2737 -0.0518,-0.2701 -0.0367,-0.2726 -0.0097,-0.2795 -0.0533,-0.2746 0.1373,-0.2449 0.0764,-0.2702 0.1441,-0.2383 0.2157,-0.1762 0.0614,-0.2698 0.1276,-0.2455 -0.0857,-0.2719 -0.2081,-0.1947 -0.1523,-0.2314 -0.1956,-0.1962 -0.0749,-0.2696 -0.0718,-0.2705 0.0571,-0.2755 -7e-4,-0.2813 0.0263,-0.2681 -0.0072,-0.2692 -0.1311,-0.2418 -0.0193,-0.2744 -0.0903,-0.2554 -0.1204,-0.2426 0.0515,-0.2712 -0.0602,-0.2695 0.1602,-0.2165 0.1421,-0.2288 0.1701,-0.2219 0.0292,-0.2781 0.1489,-0.2331 0.0153,-0.2762 0.0486,-0.2671 0.1348,-0.2357 -0.0403,-0.2695 0.0067,-0.2723 -0.02,-0.2712 -0.0518,-0.2669 0.1617,-0.2292 0.1065,-0.2595 0.0266,-0.278 -0.0061,-0.2792 0.1055,-0.2631 0.1146,-0.2593 0.0181,-0.2829 0.0083,-0.2834 -0.0648,-0.2853 0.0746,-0.2828 -0.0763,-0.2748 -0.1231,-0.2572 -0.1936,-0.2127 -0.1513,-0.2447 -0.2611,-0.1285 -0.2004,-0.2108 -0.0558,-0.2784 -0.0864,-0.2704 -0.1216,-0.2599 -0.0348,-0.2849"
         style="fill:#ffffff;stroke:#000000;stroke-width:0.307348;stroke-miterlimit:4;stroke-dasharray:none;stroke-dashoffset:0;stop-color:#000000;font-variation-settings:normal;opacity:1;vector-effect:none;fill-opacity:1;stroke-linecap:butt;stroke-linejoin:miter;stroke-opacity:1;stop-opacity:1"
         id="rect1986-5" />
      <text
         xml:space="preserve"
         style="font-style:normal;font-weight:normal;font-size:4.23333px;line-height:1.25;font-family:sans-serif;fill:#000000;fill-opacity:1;stroke:none;stroke-width:0.264583"
         x="26.607964"
         y="41.61095"
         id="text2043"><tspan
           sodipodi:role="line"
           id="tspan2041"
           x="26.607964"
           y="41.61095"
           style="font-size:4.23333px;stroke-width:0.264583">line(x, m, c) </tspan></text>
    </g>
    <g
       transform="translate(10.754725,1.0583334)"
       id="g5441">
      <path
         id="rect1986"
         style="fill:#ffffff;stroke:#000000;stroke-width:0.307348;stroke-miterlimit:4;stroke-dasharray:none;stroke-dashoffset:0;stop-color:#000000;fill-opacity:1"
         d="m 8.83193,7.07564 0.67334,-0.28377 0.72823,0.06019 0.6851,-0.20164 0.6224,-0.3503 0.7109,0.21409 0.5521,0.4964 0.7233,0.04475 0.7245,0.01429 0.6803,-0.07697 0.6796,-0.08307 0.7082,-0.04257 0.5889,-0.39587 0.5883,-0.39676 0.7085,-0.03932 0.5326,-0.44711 0.6559,-0.2308 0.624,-0.38346 0.3957,-0.61641 0.6767,-0.24487 0.7162,-0.07069 0.7153,-0.13276 0.6823,0.25286 0.6318,-0.32296 0.6996,-0.11866 0.6786,0.14934 0.6723,-0.17561 0.6804,-0.17315 0.6703,0.20884 0.6574,-0.19223 0.6639,-0.16868 0.6899,-0.05608 0.6768,0.14575 0.4709,0.52249 0.5892,0.38413 0.5505,0.4293 0.586,0.37952 0.6439,0.33532 0.5301,0.49596 0.7304,-0.05521 0.6987,0.2197 0.7121,-0.04211 0.703,0.12031 0.6648,0.25997 0.5835,0.41123 0.6618,0.26215 0.7088,-0.06555 0.6927,0.0142 0.6897,0.06466 0.7009,0.13215 0.696,0.15608 0.7114,0.15112 0.7148,-0.13477 0.6323,-0.32655 0.6315,-0.32797 0.6288,-0.35775 0.7146,-0.11226 0.69,-0.16964 0.7025,0.10637 0.6906,-0.15621 0.7019,0.09209 0.7089,0.1233 0.7192,-0.02102 0.7098,0.20526 0.524,0.52096 0.0359,0.27924 -0.0987,0.26369 0.1046,0.25341 0.0636,0.26663 -0.0169,0.27662 -0.1095,0.25453 -0.1995,0.19121 -0.1318,0.2428 0.0686,0.26051 0.0446,0.26569 -0.1083,0.24832 -0.0487,0.26651 0.1378,0.2298 0.0192,0.2673 0.0383,0.2588 0.0831,0.2482 -0.0262,0.2702 -0.1168,0.2451 -0.0713,0.2615 -0.1519,0.2245 0.0781,0.2634 -0.0036,0.2747 -0.0606,0.2649 -0.0733,0.2616 -0.0085,0.2876 0.1342,0.2545 -0.0261,0.2773 -0.0473,0.2744 0.1284,0.2431 0.1365,0.2386 0.217,0.1778 0.1299,0.2487 0.0656,0.2529 0.0213,0.2604 -0.0444,0.2567 -0.0662,0.252 -0.0964,0.245 0.0277,0.2619 -0.0898,0.2424 -0.0156,0.2581 -0.035,0.2679 0.0417,0.2671 0.0997,0.2485 0.1239,0.2375 -0.0867,0.2606 -0.1695,0.2162 -0.0018,0.2708 0.0145,0.2703 -0.0033,0.2821 0.1402,0.2448 -0.0119,0.2778 -0.1212,0.2501 -0.0152,0.2712 -0.1359,0.2351 -0.1083,0.241 -0.103,0.2433 -0.0257,0.2659 0.0346,0.2649 0.1488,0.2235 0.0766,0.2572 0.1308,0.2339 0.1031,0.2474 0.014,0.2682 -0.0334,0.2665 -0.7112,-0.2204 -0.7395,0.0861 -0.6356,0.398 -0.7474,0.0602 -0.6408,0.3306 -0.7094,0.1289 -0.7114,0.1132 -0.6515,0.3074 -0.7328,-0.1146 -0.7317,0.1212 -0.6635,-0.3099 -0.6688,-0.2982 -0.5845,-0.4222 -0.6681,-0.271 -0.6939,-0.2026 -0.6112,-0.3858 -0.6981,-0.1589 -0.691,-0.1876 -0.5483,-0.4606 -0.5255,-0.4863 -0.6647,-0.2499 -0.6817,-0.1986 -0.702,0.1249 -0.7129,-0.0141 -0.7226,0.0902 -0.7282,-0.0115 -0.7072,-0.209 -0.5948,-0.4359 -0.4501,-0.5593 -0.6358,-0.3334 -0.6777,-0.266 -0.4514,-0.5713 -0.7084,0.1843 -0.5111,0.524 -0.6802,0.234 -0.5366,0.4789 -0.4909,0.5106 -0.5758,0.4123 -0.4874,0.5196 -0.6127,0.3632 -0.7094,-0.0216 -0.7083,-0.0467 -0.7193,-0.0187 -0.6861,0.2166 -0.7001,0.1292 -0.6521,0.2857 -0.7153,0.0367 -0.6678,0.2591 -0.6912,-0.3114 -0.7581,-0.0102 -0.6191,-0.4116 -0.5717,-0.475 -0.7022,-0.2459 -0.7438,0.0094 -0.7295,0.069 -0.727,0.0912 -0.5436,0.5021 -0.6115,0.4169 -0.5966,0.4493 -0.7047,0.2477 -0.7394,-0.1314 -0.7317,0.1696 L 9.56239,23.2694 8.83193,23.358 8.74596,23.0954 8.54334,22.9076 8.49013,22.6421 8.35809,22.4057 8.30596,22.1314 8.12589,21.918 8.17476,21.6423 8.07656,21.3801 7.90162,21.1688 7.76992,20.9282 7.77532,20.6533 7.71577,20.3848 7.53623,20.1779 7.46648,19.9129 7.47016,19.638 7.34462,19.3934 7.34179,19.1236 7.38924,18.8581 7.38334,18.5833 7.26388,18.3357 7.14504,18.0912 7.13697,17.8195 7.10759,17.5553 7.08114,17.2909 7.05909,17.026 7.02339,16.7627 6.90263,16.5197 6.88825,16.2488 6.85793,15.9812 6.85773,15.7118 6.7839,15.451 6.64736,15.2168 l 0.0597,-0.2746 0.00471,-0.281 0.1005,-0.2643 0.17368,-0.2232 0.03643,-0.2823 0.02057,-0.284 -0.143,-0.2472 -0.101,-0.267 0.11546,-0.2483 0.1521,-0.2276 L 7.18397,12.361 7.16264,12.0799 7.27333,11.8234 7.24993,11.545 7.30646,11.2692 7.21102,11.0044 7.21941,10.7216 7.33532,10.4635 7.47847,10.2165 7.71859,10.062 7.954,9.90623 8.08365,9.65546 8.16,9.39288 8.25817,9.13766 8.16449,8.86761 8.14182,8.58266 8.21831,8.30946 8.31384,8.04232 8.45346,7.78381 8.70298,7.6287 8.77708,7.35442 8.83193,7.07564" />
      <text
         xml:space="preserve"
         style="font-style:normal;font-weight:normal;font-size:4.23333px;line-height:1.25;font-family:sans-serif;fill:#000000;fill-opacity:1;stroke:none;stroke-width:0.264583"
         x="10.462393"
         y="15.125178"
         id="text2052"><tspan
           sodipodi:role="line"
           id="tspan2050"
           x="10.462393"
           y="15.125178"
           style="font-size:4.23333px;stroke-width:0.264583">line_2pt(x,p<tspan
   style="font-size:65%;baseline-shift:sub"
   id="tspan2064">1</tspan>, p<tspan
   style="font-size:65%;baseline-shift:sub"
   id="tspan2062">2</tspan>)</tspan></text>
    </g>
    <g
       transform="translate(-5.2916663,-21.166667)"
       id="g5900">
      <path
         id="rect1988"
         style="font-variation-settings:normal;vector-effect:none;fill:#ffffff;fill-opacity:1;stroke:#000000;stroke-width:0.307348;stroke-linecap:butt;stroke-linejoin:miter;stroke-miterlimit:4;stroke-dasharray:none;stroke-dashoffset:0;stroke-opacity:1;stop-color:#000000;opacity:1;stop-opacity:1"
         d="m 7.87233,58.4397 0.4351,-0.0292 0.43164,0.0621 0.40742,-0.1536 0.42818,-0.079 0.37757,-0.2357 0.44426,-0.0278 0.4254,-0.0985 0.4353,0.035 0.366,-0.2373 0.4232,-0.1059 0.4165,-0.11 0.4249,-0.0709 0.4049,-0.1616 0.3653,-0.238 0.4256,-0.0856 0.4313,-0.0498 0.4011,-0.2081 0.4422,-0.093 0.4511,-0.0359 0.4218,-0.1636 0.4141,0.2053 0.4172,0.1986 0.4585,-0.0731 0.464,0.0158 0.4149,-0.1946 0.4161,-0.1917 0.4617,-0.0587 0.4537,0.1036 0.4147,-0.1826 0.3179,-0.3228 0.3909,-0.2224 0.3119,-0.3239 0.4319,-0.1376 0.4486,0.0654 0.4045,0.2068 0.4543,8e-4 0.4292,-0.0883 0.4293,-0.0883 0.4377,-0.0811 0.4388,0.0746 0.4563,0.0466 0.4556,0.053 0.4359,0.175 0.3216,0.3423 0.4705,-0.0389 0.4348,0.184 0.4605,-0.0692 0.4078,-0.225 0.4456,-0.1232 0.4621,0.0169 0.4038,0.2186 0.4386,0.136 0.2532,0.3957 0.4142,0.2216 0.4359,0.1293 0.4395,0.1159 0.3929,0.1894 0.358,0.2489 0.3847,0.2025 0.3789,0.2133 0.3636,0.2448 0.4135,0.1453 0.3945,0.1828 0.398,0.175 -0.1243,0.1908 -0.1157,0.1961 -0.0798,0.217 -3e-4,0.2312 -0.0865,0.2147 -0.1496,0.1765 0.0139,0.2322 -0.0726,0.2209 -0.0287,0.2272 -0.0609,0.2208 -0.0751,0.2229 0.037,0.2323 -0.0328,0.2356 -0.1407,0.1918 -0.1416,0.1822 -0.1512,0.1742 0.0907,0.2128 -0.0012,0.2312 0.0678,0.2186 0.0028,0.2288 -0.0296,0.2272 -0.0349,0.2264 0.0742,0.2199 10e-4,0.232 -0.167,0.1723 -0.0656,0.2308 0.0041,0.2392 -0.1049,0.2151 0.0294,0.2294 0.0279,0.2295 -0.0778,0.2254 0.0377,0.2354 0.0369,0.2276 -0.0256,0.2291 0.0171,0.2312 0.0942,0.2118 -0.0959,0.2178 -0.0128,0.2377 0.1068,0.2138 0.0139,0.2386 0.0378,0.2335 -0.0076,0.2364 -0.0711,0.2272 -0.1349,0.1962 -0.0673,0.2241 -0.0405,0.2306 0.01,0.2373 0.0934,0.2184 0.1768,0.1622 0.1807,0.1579 0.031,0.2439 0.1315,0.2078 -0.0916,0.2298 0.0151,0.247 0.1408,0.2036 0.0393,0.2444 -0.0304,0.2381 0.0965,0.2197 0.1242,0.1984 0.0568,0.2272 0.0928,0.2132 0.1101,0.2049 0.1288,0.1994 0.1975,0.1316 -0.4021,0.1778 -0.4366,0.0522 -0.4397,-0.0519 -0.4276,0.1146 -0.407,0.1535 -0.3979,0.1758 -0.4429,9e-4 -0.4103,0.1668 -0.4456,-0.0601 -0.3616,-0.2673 -0.4381,-0.1044 -0.3302,-0.3062 -0.4485,-0.0349 -0.4455,0.0636 -0.4433,-0.1077 -0.3669,-0.2711 -0.4006,0.1646 -0.4315,0.0371 -0.4204,-0.0958 -0.431,0.0053 -0.4351,-0.0227 -0.3734,-0.2245 -0.4175,-0.0665 -0.4164,-0.0727 -0.4174,-0.0624 -0.4197,-0.044 -0.4223,0.0135 -0.4186,0.0574 -0.3882,0.1741 -0.4116,0.1073 -0.4205,0.0783 -0.4263,-0.0348 -0.4074,0.1521 -0.4279,-0.0775 -0.4162,0.1151 -0.4221,-0.0915 -0.4035,-0.1282 -0.4233,-0.0119 -0.4201,-0.0144 -0.414,-0.073 -0.4171,-0.0394 -0.418,-0.0287 -0.4137,0.1225 -0.4233,-0.0838 -0.3902,-0.1687 -0.4171,-0.0818 -0.4232,0.0818 -0.422,-0.088 -0.283,0.3586 -0.4236,0.1707 -0.4438,0.019 -0.4286,0.1169 -0.4095,0.1269 -0.4188,0.0921 -0.4204,0.0837 -0.4125,0.1169 L 10.8166,72.6009 10.3537,72.602 10.0156,72.2872 9.62318,72.0434 9.18717,72.1626 8.73746,72.1169 8.28191,72.1211 7.87233,72.3205 7.92102,72.0864 7.87783,71.8511 7.93968,71.6228 8.05554,71.4166 8.00321,71.1893 7.89081,70.9849 7.83272,70.7611 7.78439,70.5351 7.80325,70.301 7.76315,70.0696 7.79843,69.8338 7.9282,69.6338 8.07852,69.4501 8.27087,69.3109 8.31955,69.0791 8.4177,68.8635 8.44345,68.6374 8.37753,68.4195 8.4234,68.2014 8.47077,67.9836 8.50078,67.7594 8.48725,67.5336 8.39085,67.3296 8.32205,67.1147 8.21696,66.9153 8.14363,66.7022 8.1729,66.4784 8.16043,66.253 8.10246,66.0335 8.15685,65.8131 8.06258,65.6066 8.07945,65.3801 8.03578,65.1625 8.06271,64.9421 8.07327,64.7208 8.01939,64.506 7.9919,64.2822 8.04871,64.0639 8.01442,63.8444 7.94704,63.6328 8.06135,63.433 8.1142,63.209 8.06188,62.9868 8.03757,62.7599 8.04399,62.5384 8.07447,62.3189 8.12794,62.103 8.22431,61.9025 8.18919,61.6709 8.06886,61.4699 8.07214,61.24 8.06407,61.0102 8.11292,60.788 8.1995,60.5776 8.23717,60.3524 8.32748,60.1427 8.22191,59.9419 8.20123,59.7159 8.13755,59.497 8.17275,59.2717 8.05637,59.078 7.93505,58.8873 7.88965,58.6655 7.87233,58.4397" />
      <text
         xml:space="preserve"
         style="font-style:normal;font-weight:normal;font-size:4.23333px;line-height:1.25;font-family:sans-serif;fill:#000000;fill-opacity:1;stroke:none;stroke-width:0.264583"
         x="11.292103"
         y="65.322304"
         id="text2056"><tspan
           sodipodi:role="line"
           id="tspan2054"
           x="11.292103"
           y="65.322304"
           style="font-size:4.23333px;stroke-width:0.264583">m(p<tspan
   style="font-size:65%;baseline-shift:sub"
   id="tspan2060">1</tspan>, p<tspan
   style="font-size:65%;baseline-shift:sub"
   id="tspan2058">2</tspan>)</tspan></text>
    </g>
    <g
       transform="translate(-18.600951,7.408333)"
       id="g5751">
      <g
         id="g5907">
        <path
           d="m 44.914,53.148 0.3134,-0.329 0.4385,-0.1191 0.4521,0.0355 0.4081,-0.1977 0.4314,-0.0683 0.4358,0.0267 0.4206,0.1111 0.4315,0.0555 0.4553,0.0094 0.4066,-0.205 0.3834,-0.2255 0.3223,-0.3066 0.435,-0.054 0.4285,0.0925 0.432,0.1055 0.4323,-0.1045 0.4382,0.1849 0.4706,-0.0678 0.4054,-0.2154 0.4291,-0.163 0.2947,-0.3405 0.3706,-0.256 0.4324,-0.1245 0.3899,-0.2247 0.4377,0.0177 0.4291,0.0883 0.4302,-0.0765 0.4349,-0.0426 0.4495,0.0806 0.4385,-0.1271 0.3875,0.2244 0.4292,0.1275 0.4572,-0.0469 0.4392,0.1357 0.4649,-0.0547 0.4244,0.1973 0.4571,0.0589 0.4598,-0.0318 0.3978,0.2346 0.4418,0.1346 0.2835,-0.3844 0.437,-0.1925 0.4721,-0.0368 0.4089,-0.2386 0.4685,0.0616 0.472,-0.0215 0.381,-0.2844 0.4457,-0.1658 0.4222,0.1825 0.4473,0.1074 0.4136,0.1982 0.3973,0.229 0.2899,0.3532 0.2911,0.3521 0.2759,0.3669 0.3408,0.3075 0.4666,-0.0492 0.4587,0.0984 0.4484,-0.1197 0.4594,-0.0664 0.4509,0.1272 0.4594,0.0917 0.3461,0.321 0.4159,0.2231 0.0134,0.2243 -0.0082,0.2245 -0.0148,0.2282 0.0726,0.2168 0.0455,0.2278 -0.0767,0.2192 -0.0075,0.2245 -0.0395,0.2212 -0.1629,0.1684 -0.1044,0.2099 -0.052,0.2296 -0.1301,0.1963 -0.0449,0.2287 0.0249,0.2317 -0.0111,0.2306 0.0174,0.2302 0.0128,0.2303 0.0016,0.2305 0.086,0.214 0.0736,0.2185 -0.0562,0.2227 -0.0285,0.2279 0.0514,0.2266 -0.0244,0.2311 0.0731,0.2166 0.1024,0.2045 0.1028,0.2082 0.1723,0.1556 0.1658,0.1681 0.0678,0.2263 0.0346,0.227 0.0636,0.2206 -0.0691,0.2202 -0.1258,0.1934 -0.1733,0.1558 -0.1011,0.21 -0.0563,0.2245 -0.0522,0.2254 0.0421,0.2278 0.0201,0.2308 -0.0433,0.2213 -0.0892,0.2071 -0.0121,0.2253 0.038,0.2224 -0.0976,0.2074 0.0245,0.2279 -0.0033,0.2217 -0.0467,0.2168 0.212,0.1257 0.1278,0.2107 0.124,0.2138 0.0038,0.247 -0.0505,0.2297 0.0327,0.2329 0.0636,0.2272 -0.0271,0.2343 -0.0218,0.2296 -0.0944,0.2103 -0.0716,0.2161 -0.0598,0.2196 0.0667,0.2232 0.0763,0.2201 -0.0518,0.2284 -0.005,0.2341 -0.4349,0.0541 -0.4358,-0.046 -0.4046,-0.1605 -0.402,-0.1672 -0.4237,-0.0797 -0.4305,-0.0244 -0.4156,0.1399 -0.4376,-0.0278 -0.4136,0.1524 -0.4392,-0.0354 -0.43,-0.0377 -0.4308,0.0258 -0.434,-0.0762 -0.3773,-0.2275 -0.4342,-0.0068 -0.4288,-0.0693 -0.4276,-0.0746 -0.3698,-0.2274 -0.3696,-0.2442 -0.4428,-0.0153 -0.4483,0.0301 -0.4236,-0.1497 -0.3229,-0.3034 -0.3836,-0.2216 -0.4528,0.02 -0.4185,0.1743 -0.4499,-0.0284 -0.4247,-0.1508 -0.36,-0.2617 -0.4327,-0.104 -0.4025,-0.1693 -0.3925,-0.1915 -0.4432,0.1717 -0.2931,0.3743 -0.4184,0.1925 -0.4478,0.1076 -0.4289,-0.1978 -0.4718,-0.0203 -0.4675,0.021 -0.4434,0.1494 -0.4026,0.2251 -0.4399,0.1386 -0.4653,-5e-4 -0.4396,0.1523 -0.2329,0.3992 -0.2641,0.3791 -0.426,0.2064 -0.2959,0.3694 -0.4404,0.0393 -0.4244,-0.1241 -0.4383,-0.0245 -0.4272,0.1012 -0.4453,-0.0412 -0.4167,0.162 -0.4267,-0.1219 -0.4409,0.0506 -0.4347,0.1016 -0.4348,-0.1014 -0.4224,-0.1053 -0.4315,-0.0582 -0.4304,0.0777 -0.4373,0.0011 -0.4146,-0.1807 -0.4483,0.0596 0.1764,-0.1623 0.0692,-0.2296 0.0967,-0.2121 0.0398,-0.2297 -0.0399,-0.2292 0.0073,-0.2325 -0.0014,-0.2367 0.0955,-0.2166 -0.088,-0.2138 0.0053,-0.2312 -0.0591,-0.2243 0.0427,-0.228 -0.0593,-0.2287 -0.1365,-0.1927 0.0182,-0.2318 0.0018,-0.2324 0.1013,-0.2144 0.0199,-0.2364 0.1329,-0.1918 0.1258,-0.1966 0.2244,-0.1005 0.1536,-0.1921 0.0402,-0.2408 0.1331,-0.2047 -0.0137,-0.2318 -0.0196,-0.2314 -0.0645,-0.2235 -0.0374,-0.2296 -0.0591,-0.234 0.0496,-0.2361 0.0904,-0.2176 0.0613,-0.2276 0.0687,-0.2327 -0.0315,-0.2407 0.1375,-0.194 0.1147,-0.2083 -0.0491,-0.226 -0.0153,-0.2307 -0.0488,-0.2256 -0.0281,-0.2291 0.049,-0.2344 -0.0628,-0.231 -0.1285,-0.1987 -0.0494,-0.2315 0.0308,-0.2317 -0.0183,-0.233 0.0806,-0.218 0.0884,-0.215 -0.0553,-0.242 -0.0069,-0.2482 -0.1274,-0.2128 -0.1633,-0.1867 0.0081,-0.2468 0.1153,-0.2182 0.0708,-0.2371 -0.045,-0.2433 -0.1937,-0.1559 -0.0983,-0.2284 0.0044,-0.2462 -0.0914,-0.2286 -0.1878,-0.1471 -0.1272,-0.2018 -0.209,-0.1196 -0.1381,-0.1973"
           style="font-variation-settings:normal;vector-effect:none;fill:#ffffff;fill-opacity:1;stroke:#000000;stroke-width:0.307348;stroke-linecap:butt;stroke-linejoin:miter;stroke-miterlimit:4;stroke-dasharray:none;stroke-dashoffset:0;stroke-opacity:1;stop-color:#000000;opacity:1;stop-opacity:1"
           id="rect1988-6" />
        <text
           xml:space="preserve"
           style="font-style:normal;font-weight:normal;font-size:4.23333px;line-height:1.25;font-family:sans-serif;fill:#000000;fill-opacity:1;stroke:none;stroke-width:0.264583"
           x="49.436073"
           y="60.059612"
           id="text2056-5"><tspan
             sodipodi:role="line"
             id="tspan2054-0"
             x="49.436073"
             y="60.059612"
             style="font-size:4.23333px;stroke-width:0.264583">c(p<tspan
   style="font-size:2.75167px;baseline-shift:sub;stroke-width:0.264583"
   id="tspan2060-8">1</tspan>, p<tspan
   style="font-size:2.75167px;baseline-shift:sub;stroke-width:0.264583"
   id="tspan2058-7">2</tspan>)</tspan></text>
      </g>
    </g>
    <path
       d="M -35.3864 12.9033 L -34.1478 13.3218 L -32.8967 13.7009 L -31.5677 13.5995 L -30.3013 14.0154 L -29.1598 13.3499 L -27.8601 13.111 L -26.637 12.661 L -25.4645 12.0919 L -24.4867 13.0226 L -23.1637 13.2911 L -21.8424 13.246 L -20.6023 13.7044 L -19.3035 13.7461 L -18.0042 13.735 L -16.7831 13.2906 L -15.5426 12.9033 L -15.4216 13.6697 L -15.1798 14.407 L -14.7819 15.0854 L -14.1682 15.5773 L -14.048 16.3493 L -14.3485 17.0706 L -14.1692 17.8325 L -14.4226 18.573 L -14.5722 19.3162 L -14.6787 20.0668 L -14.7258 20.8585 L -14.3185 21.539 L -14.6581 22.2832 L -15.3655 22.6939 L -15.3253 23.483 L -15.5426 24.2426 L -16.7861 23.6987 L -18.1392 23.8047 L -19.3226 24.3817 L -20.51 24.9505 L -21.6277 24.2861 L -22.9099 24.0704 L -24.1939 23.9181 L -25.4645 24.1575 L -26.7524 24.3097 L -28.0353 24.1206 L -29.3793 24.2273 L -30.4178 25.087 L -31.6981 25.4084 L -33.0162 25.3359 L -34.1084 24.5879 L -35.3864 24.2426 L -35.3345 23.4995 L -34.9611 22.8551 L -34.6153 22.1976 L -34.576 21.4558 L -34.6774 20.7253 L -34.5747 19.995 L -34.5451 19.2518 L -34.2408 18.573 L -34.4086 17.8677 L -34.6305 17.1775 L -34.8285 16.4748 L -34.8477 15.745 L -34.9382 14.9844 L -34.7227 14.2494 L -35.1037 13.6006 L -35.3864 12.9033"
       style="font-variation-settings:normal;opacity:1;vector-effect:none;fill:none;fill-opacity:1;stroke:#000000;stroke-width:0.264583px;stroke-linecap:butt;stroke-linejoin:miter;stroke-miterlimit:4;stroke-dasharray:none;stroke-dashoffset:0;stroke-opacity:1;marker-end:url(#marker4052);stop-color:#000000;stop-opacity:1"
       id="rect4048" />
    <ellipse
       ry="4.740994"
       rx="4.5454898"
       cy="31.427414"
       cx="-37.292564"
       id="path4156"
       style="font-variation-settings:normal;opacity:1;vector-effect:none;fill:none;fill-opacity:1;stroke:#000000;stroke-width:0.264583px;stroke-linecap:butt;stroke-linejoin:miter;stroke-miterlimit:4;stroke-dasharray:none;stroke-dashoffset:0;stroke-opacity:1;marker-end:url(#marker4160);stop-color:#000000;stop-opacity:1" />
    <path
       inkscape:connection-end="#g5900"
       inkscape:connection-start="#g5441"
       inkscape:connector-curvature="0"
       inkscape:connector-type="polyline"
       id="path5909"
       d="M 32.645451,23.278706 23.126365,34.46788"
       style="fill:none;fill-rule:evenodd;stroke:#000000;stroke-width:0.26458333;stroke-linecap:butt;stroke-linejoin:miter;stroke-opacity:1;stroke-miterlimit:4;stroke-dasharray:none;marker-end:url(#marker5986)" />
    <path
       inkscape:connection-end="#g2048"
       inkscape:connection-start="#g5441"
       inkscape:connector-curvature="0"
       inkscape:connector-type="polyline"
       id="path5911"
       d="M 45.298547,22.149733 55.525479,35.179032"
       style="fill:none;fill-rule:evenodd;stroke:#000000;stroke-width:0.264583;stroke-linecap:butt;stroke-linejoin:miter;stroke-opacity:1;font-variation-settings:normal;opacity:1;vector-effect:none;fill-opacity:1;stroke-miterlimit:4;stroke-dasharray:none;stroke-dashoffset:0;marker-end:url(#marker6226);stop-color:#000000;stop-opacity:1" />
    <path
       inkscape:connection-end="#g5751"
       inkscape:connection-start="#g5441"
       inkscape:connector-curvature="0"
       inkscape:connector-type="polyline"
       id="path5913"
       d="m 39.6875,20.285529 0,38.174382"
       style="fill:none;fill-rule:evenodd;stroke:#000000;stroke-width:0.264583;stroke-linecap:butt;stroke-linejoin:miter;stroke-opacity:1;font-variation-settings:normal;opacity:1;vector-effect:none;fill-opacity:1;stroke-miterlimit:4;stroke-dasharray:none;stroke-dashoffset:0;marker-end:url(#marker5986);stop-color:#000000;stop-opacity:1" />
    <path
       inkscape:connection-end="#g5900"
       inkscape:connection-start="#g2048"
       inkscape:connector-curvature="0"
       inkscape:connector-type="polyline"
       id="path5915"
       d="M 45.954992,43.054561 27.901485,43.005755"
       style="fill:none;fill-rule:evenodd;stroke:#000000;stroke-width:0.264583;stroke-linecap:butt;stroke-linejoin:miter;stroke-opacity:1;font-variation-settings:normal;opacity:1;vector-effect:none;fill-opacity:1;stroke-miterlimit:4;stroke-dasharray:none;stroke-dashoffset:0;marker-end:url(#marker6461);stop-color:#000000;stop-opacity:1" />
    <path
       inkscape:connection-end="#g5751"
       inkscape:connection-start="#g2048"
       inkscape:connector-curvature="0"
       inkscape:connector-type="polyline"
       id="path5917"
       d="m 53.364263,51.904786 -5.933644,6.239091"
       style="fill:none;fill-rule:evenodd;stroke:#000000;stroke-width:0.264583;stroke-linecap:butt;stroke-linejoin:miter;stroke-opacity:1;font-variation-settings:normal;opacity:1;vector-effect:none;fill-opacity:1;stroke-miterlimit:4;stroke-dasharray:none;stroke-dashoffset:0;marker-end:url(#marker7292);stop-color:#000000;stop-opacity:1" />
    <rect
       y="42.52232"
       x="-21.016779"
       height="6.1584048"
       width="3.2258313"
       id="rect5919"
       style="font-variation-settings:normal;opacity:1;vector-effect:none;fill:none;fill-opacity:1;stroke:#000000;stroke-width:0.264583px;stroke-linecap:butt;stroke-linejoin:miter;stroke-miterlimit:4;stroke-dasharray:none;stroke-dashoffset:0;stroke-opacity:1;marker-end:url(#Arrow1Lend);stop-color:#000000;stop-opacity:1" />
    <rect
       y="52.884083"
       x="-28.836977"
       height="18.475214"
       width="21.016779"
       id="rect5923"
       style="font-variation-settings:normal;opacity:1;vector-effect:none;fill:#0060ff;fill-opacity:1;stroke:#000000;stroke-width:0.264583px;stroke-linecap:butt;stroke-linejoin:miter;stroke-miterlimit:4;stroke-dasharray:none;stroke-dashoffset:0;stroke-opacity:1;marker-end:url(#Arrow1Lend);stop-color:#000000;stop-opacity:1;filter:url(#filter5937)" />
  </g>
</svg>
