<?xml version="1.0" encoding="UTF-8" standalone="no"?>
<svg
   xmlns:dc="http://purl.org/dc/elements/1.1/"
   xmlns:cc="http://creativecommons.org/ns#"
   xmlns:rdf="http://www.w3.org/1999/02/22-rdf-syntax-ns#"
   xmlns:svg="http://www.w3.org/2000/svg"
   xmlns="http://www.w3.org/2000/svg"
   xmlns:xlink="http://www.w3.org/1999/xlink"
   id="svg2020"
   version="1.1"
   viewBox="0 0 84.666664 84.666672"
   height="84.666672mm"
   width="84.666664mm">
  <defs
     id="defs2014">
    <linearGradient
       id="linearGradient2579">
      <stop
         id="stop2575"
         offset="0"
         style="stop-color:#1a1a1a;stop-opacity:1;" />
      <stop
         id="stop2577"
         offset="1"
         style="stop-color:#f03a2b;stop-opacity:1" />
    </linearGradient>
    <linearGradient
       gradientUnits="userSpaceOnUse"
       y2="191.92263"
       x2="117.17262"
       y1="191.92263"
       x1="32.505951"
       id="linearGradient2581"
       xlink:href="#linearGradient2579" />
  </defs>
  <metadata
     id="metadata2017">
    <rdf:RDF>
      <cc:Work
         rdf:about="">
        <dc:format>image/svg+xml</dc:format>
        <dc:type
           rdf:resource="http://purl.org/dc/dcmitype/StillImage" />
        <dc:title></dc:title>
      </cc:Work>
    </rdf:RDF>
  </metadata>
  <g
     transform="translate(-32.505952,-149.58929)"
     id="layer1">
    <rect
       y="149.58929"
       x="32.505951"
       height="84.666664"
       width="84.666664"
       id="rect2573"
       style="opacity:1;vector-effect:none;fill:url(#linearGradient2581);fill-opacity:1;stroke:none;stroke-width:0.79374999;stroke-linecap:butt;stroke-linejoin:miter;stroke-miterlimit:4;stroke-dasharray:none;stroke-dashoffset:0;stroke-opacity:1;paint-order:normal" />
    <g
       style="fill:#f03a2b;fill-opacity:1"
       transform="matrix(0.92140484,0,0,0.92142445,32.506852,149.58569)"
       id="surface62509">
      <path
         style="fill:#f03a2b;fill-opacity:1;fill-rule:nonzero;stroke:none"
         d="M 90.15625,41.855469 50.035156,1.738281 c -2.308593,-2.3125 -6.058593,-2.3125 -8.371093,0 l -8.328125,8.332032 10.566406,10.566406 c 2.457031,-0.828125 5.273437,-0.273438 7.230469,1.683594 1.96875,1.96875 2.519531,4.8125 1.667968,7.277343 l 10.1875,10.183594 c 2.464844,-0.851562 5.304688,-0.300781 7.277344,1.671875 2.75,2.746094 2.75,7.203125 0,9.957031 -2.753906,2.75 -7.210937,2.75 -9.964844,0 C 58.234375,49.339844 57.722656,46.300781 58.773438,43.75 l -9.5,-9.5 v 25 c 0.667968,0.332031 1.300781,0.773438 1.859375,1.328125 2.75,2.75 2.75,7.207031 0,9.960938 -2.75,2.75 -7.210938,2.75 -9.957032,0 -2.75,-2.753907 -2.75,-7.210938 0,-9.960938 0.679688,-0.675781 1.46875,-1.191406 2.304688,-1.535156 V 33.816406 c -0.835938,-0.34375 -1.625,-0.855468 -2.304688,-1.539062 C 39.09375,30.195313 38.59375,27.140625 39.660156,24.582031 L 29.242188,14.160156 1.730469,41.667969 c -2.308594,2.3125 -2.308594,6.0625 0,8.371094 L 41.851563,90.15625 c 2.3125,2.3125 6.058593,2.3125 8.371093,0 L 90.15625,50.226563 c 2.308594,-2.3125 2.308594,-6.0625 0,-8.371094"
         id="path4180" />
    </g>
  </g>
</svg>
