<?xml version="1.0" encoding="utf-8" standalone="no"?>
<!DOCTYPE svg PUBLIC "-//W3C//DTD SVG 1.1//EN"
  "http://www.w3.org/Graphics/SVG/1.1/DTD/svg11.dtd">
<!-- Created with matplotlib (https://matplotlib.org/) -->
<svg height="79.2pt" version="1.1" viewBox="0 0 79.2 79.2" width="79.2pt" xmlns="http://www.w3.org/2000/svg" xmlns:xlink="http://www.w3.org/1999/xlink">
 <metadata>
  <rdf:RDF xmlns:cc="http://creativecommons.org/ns#" xmlns:dc="http://purl.org/dc/elements/1.1/" xmlns:rdf="http://www.w3.org/1999/02/22-rdf-syntax-ns#">
   <cc:Work>
    <dc:type rdf:resource="http://purl.org/dc/dcmitype/StillImage"/>
    <dc:date>2021-03-06T18:41:00.858595</dc:date>
    <dc:format>image/svg+xml</dc:format>
    <dc:creator>
     <cc:Agent>
      <dc:title>Matplotlib v3.3.4, https://matplotlib.org/</dc:title>
     </cc:Agent>
    </dc:creator>
   </cc:Work>
  </rdf:RDF>
 </metadata>
 <defs>
  <style type="text/css">*{stroke-linecap:butt;stroke-linejoin:round;}</style>
 </defs>
 <g id="figure_1">
  <g id="patch_1">
   <path d="M 0 79.2 
L 79.2 79.2 
L 79.2 0 
L 0 0 
z
" style="fill:none;opacity:0;"/>
  </g>
  <g id="axes_1">
   <g id="patch_2">
    <path d="M 76.824 39.6 
C 76.824 34.711789 75.861129 29.87111 73.990492 25.354992 
C 72.119854 20.838874 69.37783 16.735144 65.921343 13.278657 
C 62.464856 9.82217 58.361126 7.080146 53.845008 5.209508 
C 49.32889 3.338871 44.488211 2.376 39.6 2.376 
C 34.711789 2.376 29.87111 3.338871 25.354992 5.209508 
C 20.838874 7.080146 16.735144 9.82217 13.278657 13.278657 
C 9.82217 16.735144 7.080146 20.838874 5.209508 25.354992 
C 3.338871 29.87111 2.376 34.711789 2.376 39.6 
C 2.376 44.488211 3.338871 49.32889 5.209508 53.845008 
C 7.080146 58.361126 9.82217 62.464856 13.278657 65.921343 
C 16.735144 69.37783 20.838874 72.119854 25.354992 73.990492 
C 29.87111 75.861129 34.711789 76.824 39.6 76.824 
C 44.488211 76.824 49.32889 75.861129 53.845008 73.990492 
C 58.361126 72.119854 62.464856 69.37783 65.921343 65.921343 
C 69.37783 62.464856 72.119854 58.361126 73.990492 53.845008 
C 75.861129 49.32889 76.824 44.488211 76.824 39.6 
M 39.6 39.6 
C 39.6 39.6 39.6 39.6 39.6 39.6 
C 39.6 39.6 39.6 39.6 39.6 39.6 
C 39.6 39.6 39.6 39.6 39.6 39.6 
C 39.6 39.6 39.6 39.6 39.6 39.6 
C 39.6 39.6 39.6 39.6 39.6 39.6 
C 39.6 39.6 39.6 39.6 39.6 39.6 
C 39.6 39.6 39.6 39.6 39.6 39.6 
C 39.6 39.6 39.6 39.6 39.6 39.6 
C 39.6 39.6 39.6 39.6 39.6 39.6 
C 39.6 39.6 39.6 39.6 39.6 39.6 
C 39.6 39.6 39.6 39.6 39.6 39.6 
C 39.6 39.6 39.6 39.6 39.6 39.6 
C 39.6 39.6 39.6 39.6 39.6 39.6 
C 39.6 39.6 39.6 39.6 39.6 39.6 
C 39.6 39.6 39.6 39.6 39.6 39.6 
C 39.6 39.6 39.6 39.6 39.6 39.6 
M 76.824 39.6 
z
" style="fill:#ffffff;"/>
   </g>
   <g id="patch_3">
    <path d="M 39.6 39.6 
C 39.6 39.6 39.6 39.6 39.6 39.6 
C 39.6 39.6 39.6 39.6 39.6 39.6 
C 39.6 39.6 39.6 39.6 39.6 39.6 
C 39.6 39.6 39.6 39.6 39.6 39.6 
C 39.6 39.6 39.6 39.6 39.6 39.6 
C 39.6 39.6 39.6 39.6 39.6 39.6 
C 39.6 39.6 39.6 39.6 39.6 39.6 
C 39.6 39.6 39.6 39.6 39.6 39.6 
C 39.6 39.6 39.6 39.6 39.6 39.6 
C 39.6 39.6 39.6 39.6 39.6 39.6 
C 39.6 39.6 39.6 39.6 39.6 39.6 
C 39.6 39.6 39.6 39.6 39.6 39.6 
C 39.6 39.6 39.6 39.6 39.6 39.6 
C 39.6 39.6 39.6 39.6 39.6 39.6 
C 39.6 39.6 39.6 39.6 39.6 39.6 
C 39.6 39.6 39.6 39.6 39.6 39.6 
L 79.22288 39.6 
C 79.22288 44.803229 78.197957 49.955863 76.206768 54.76302 
C 74.215578 59.570176 71.296846 63.938369 67.617607 67.617607 
C 63.938369 71.296846 59.570176 74.215578 54.76302 76.206768 
C 49.955863 78.197957 44.803229 79.22288 39.6 79.22288 
C 34.396771 79.22288 29.244137 78.197957 24.43698 76.206768 
C 19.629824 74.215578 15.261631 71.296846 11.582393 67.617607 
C 7.903154 63.938369 4.984422 59.570176 2.993232 54.76302 
C 1.002043 49.955863 -0.02288 44.803229 -0.02288 39.6 
C -0.02288 34.396771 1.002043 29.244137 2.993232 24.43698 
C 4.984422 19.629824 7.903154 15.261631 11.582393 11.582393 
C 15.261631 7.903154 19.629824 4.984422 24.43698 2.993232 
C 29.244137 1.002043 34.396771 -0.02288 39.6 -0.02288 
C 44.803229 -0.02288 49.955863 1.002043 54.76302 2.993232 
C 59.570176 4.984422 63.938369 7.903154 67.617607 11.582393 
C 71.296846 15.261631 74.215578 19.629824 76.206768 24.43698 
C 78.197957 29.244137 79.22288 34.396771 79.22288 39.6 
z
" style="fill:#ffffff;"/>
   </g>
   <g id="matplotlib.axis_1">
    <g id="xtick_1"/>
    <g id="xtick_2"/>
    <g id="xtick_3"/>
    <g id="xtick_4"/>
    <g id="xtick_5"/>
    <g id="xtick_6"/>
    <g id="xtick_7"/>
    <g id="xtick_8"/>
    <g id="xtick_9"/>
    <g id="xtick_10"/>
    <g id="xtick_11"/>
    <g id="xtick_12"/>
    <g id="xtick_13"/>
    <g id="xtick_14"/>
    <g id="xtick_15"/>
    <g id="xtick_16"/>
    <g id="xtick_17"/>
    <g id="xtick_18"/>
    <g id="xtick_19"/>
    <g id="xtick_20"/>
    <g id="xtick_21"/>
    <g id="xtick_22"/>
    <g id="xtick_23"/>
    <g id="xtick_24"/>
    <g id="xtick_25"/>
    <g id="xtick_26"/>
    <g id="xtick_27"/>
    <g id="xtick_28"/>
    <g id="xtick_29"/>
    <g id="xtick_30"/>
    <g id="xtick_31"/>
    <g id="xtick_32"/>
    <g id="xtick_33"/>
   </g>
   <g id="matplotlib.axis_2">
    <g id="ytick_1"/>
    <g id="ytick_2"/>
    <g id="ytick_3"/>
    <g id="ytick_4"/>
    <g id="ytick_5"/>
    <g id="ytick_6"/>
    <g id="ytick_7"/>
    <g id="ytick_8"/>
    <g id="ytick_9"/>
    <g id="ytick_10"/>
    <g id="ytick_11"/>
    <g id="ytick_12"/>
    <g id="ytick_13"/>
    <g id="ytick_14"/>
    <g id="ytick_15"/>
    <g id="ytick_16"/>
    <g id="ytick_17"/>
    <g id="ytick_18"/>
   </g>
   <g id="patch_4">
    <path clip-path="url(#p13ecc9f196)" d="M 39.6 39.6 
C 39.6 39.6 39.6 39.6 39.6 39.6 
C 39.6 39.6 39.6 39.6 39.6 39.6 
L 47.46714 37.043811 
C 47.60105 37.455946 47.702368 37.877966 47.770158 38.305974 
C 47.837948 38.733982 47.872 39.166657 47.872 39.6 
z
" style="fill:#004cff;fill-opacity:0.6;stroke:#4c4c4c;stroke-linejoin:miter;stroke-width:0.7;"/>
   </g>
   <g id="patch_5">
    <path clip-path="url(#p13ecc9f196)" d="M 39.6 39.6 
C 39.6 39.6 39.6 39.6 39.6 39.6 
C 39.6 39.6 39.6 39.6 39.6 39.6 
L 48.319718 16.366395 
C 49.536851 16.823193 50.71621 17.374928 51.8469 18.016504 
C 52.97759 18.65808 54.056118 19.387514 55.072523 20.19807 
z
" style="fill:#ceff29;fill-opacity:0.6;stroke:#4c4c4c;stroke-linejoin:miter;stroke-width:0.7;"/>
   </g>
   <g id="patch_6">
    <path clip-path="url(#p13ecc9f196)" d="M 39.6 39.6 
C 39.6 39.6 39.6 39.6 39.6 39.6 
C 39.6 39.6 39.6 39.6 39.6 39.6 
L 18.394708 14.200171 
C 20.39191 12.532787 22.578821 11.106769 24.910084 9.951693 
C 27.241346 8.796617 29.700731 7.920524 32.237227 7.341585 
z
" style="fill:#ff6800;fill-opacity:0.6;stroke:#4c4c4c;stroke-linejoin:miter;stroke-width:0.7;"/>
   </g>
   <g id="patch_7">
    <path clip-path="url(#p13ecc9f196)" d="M 39.6 39.6 
C 39.6 39.6 39.6 39.6 39.6 39.6 
C 39.6 39.6 39.6 39.6 39.6 39.6 
L 11.113271 44.769579 
C 10.570803 41.780335 10.502213 38.72425 10.910022 35.713678 
C 11.317832 32.703107 12.196982 29.775402 13.515149 27.038198 
z
" style="fill:#ffc400;fill-opacity:0.6;stroke:#4c4c4c;stroke-linejoin:miter;stroke-width:0.7;"/>
   </g>
   <g id="patch_8">
    <path clip-path="url(#p13ecc9f196)" d="M 39.6 39.6 
C 39.6 39.6 39.6 39.6 39.6 39.6 
C 39.6 39.6 39.6 39.6 39.6 39.6 
L 26.000798 49.021551 
C 25.75411 48.665479 25.521503 48.299856 25.303513 47.925527 
C 25.085523 47.551198 24.882319 47.168451 24.694371 46.778173 
z
" style="fill:#29ffce;fill-opacity:0.6;stroke:#4c4c4c;stroke-linejoin:miter;stroke-width:0.7;"/>
   </g>
   <g id="patch_9">
    <path clip-path="url(#p13ecc9f196)" d="M 39.6 39.6 
C 39.6 39.6 39.6 39.6 39.6 39.6 
C 39.6 39.6 39.6 39.6 39.6 39.6 
L 43.064029 59.987813 
C 41.728579 60.214715 40.37406 60.309856 39.020003 60.271865 
C 37.665947 60.233874 36.318894 60.062934 34.998267 59.761509 
z
" style="fill:#7dff7a;fill-opacity:0.6;stroke:#4c4c4c;stroke-linejoin:miter;stroke-width:0.7;"/>
   </g>
   <g id="patch_10">
    <path clip-path="url(#p13ecc9f196)" d="M 39.6 39.6 
C 39.6 39.6 39.6 39.6 39.6 39.6 
C 39.6 39.6 39.6 39.6 39.6 39.6 
L 65.699075 59.938486 
C 64.900154 60.96369 64.041519 61.940931 63.127636 62.865126 
C 62.213752 63.789321 61.246207 64.658867 60.230031 65.46924 
z
" style="fill:#ff6800;fill-opacity:0.6;stroke:#4c4c4c;stroke-linejoin:miter;stroke-width:0.7;"/>
   </g>
   <g id="patch_11">
    <path d="M 76.824 39.6 
C 76.824 34.711789 75.861129 29.87111 73.990492 25.354992 
C 72.119854 20.838874 69.37783 16.735144 65.921343 13.278657 
C 62.464856 9.82217 58.361126 7.080146 53.845008 5.209508 
C 49.32889 3.338871 44.488211 2.376 39.6 2.376 
C 34.711789 2.376 29.87111 3.338871 25.354992 5.209508 
C 20.838874 7.080146 16.735144 9.82217 13.278657 13.278657 
C 9.82217 16.735144 7.080146 20.838874 5.209508 25.354992 
C 3.338871 29.87111 2.376 34.711789 2.376 39.6 
C 2.376 44.488211 3.338871 49.32889 5.209508 53.845008 
C 7.080146 58.361126 9.82217 62.464856 13.278657 65.921343 
C 16.735144 69.37783 20.838874 72.119854 25.354992 73.990492 
C 29.87111 75.861129 34.711789 76.824 39.6 76.824 
C 44.488211 76.824 49.32889 75.861129 53.845008 73.990492 
C 58.361126 72.119854 62.464856 69.37783 65.921343 65.921343 
C 69.37783 62.464856 72.119854 58.361126 73.990492 53.845008 
C 75.861129 49.32889 76.824 44.488211 76.824 39.6 
" style="fill:none;stroke:#11557c;stroke-linecap:square;stroke-linejoin:miter;"/>
   </g>
  </g>
 </g>
 <defs>
  <clipPath id="p13ecc9f196">
   <path d="M 76.824 39.6 
C 76.824 34.711789 75.861129 29.87111 73.990492 25.354992 
C 72.119854 20.838874 69.37783 16.735144 65.921343 13.278657 
C 62.464856 9.82217 58.361126 7.080146 53.845008 5.209508 
C 49.32889 3.338871 44.488211 2.376 39.6 2.376 
C 34.711789 2.376 29.87111 3.338871 25.354992 5.209508 
C 20.838874 7.080146 16.735144 9.82217 13.278657 13.278657 
C 9.82217 16.735144 7.080146 20.838874 5.209508 25.354992 
C 3.338871 29.87111 2.376 34.711789 2.376 39.6 
C 2.376 44.488211 3.338871 49.32889 5.209508 53.845008 
C 7.080146 58.361126 9.82217 62.464856 13.278657 65.921343 
C 16.735144 69.37783 20.838874 72.119854 25.354992 73.990492 
C 29.87111 75.861129 34.711789 76.824 39.6 76.824 
C 44.488211 76.824 49.32889 75.861129 53.845008 73.990492 
C 58.361126 72.119854 62.464856 69.37783 65.921343 65.921343 
C 69.37783 62.464856 72.119854 58.361126 73.990492 53.845008 
C 75.861129 49.32889 76.824 44.488211 76.824 39.6 
M 39.6 39.6 
C 39.6 39.6 39.6 39.6 39.6 39.6 
C 39.6 39.6 39.6 39.6 39.6 39.6 
C 39.6 39.6 39.6 39.6 39.6 39.6 
C 39.6 39.6 39.6 39.6 39.6 39.6 
C 39.6 39.6 39.6 39.6 39.6 39.6 
C 39.6 39.6 39.6 39.6 39.6 39.6 
C 39.6 39.6 39.6 39.6 39.6 39.6 
C 39.6 39.6 39.6 39.6 39.6 39.6 
C 39.6 39.6 39.6 39.6 39.6 39.6 
C 39.6 39.6 39.6 39.6 39.6 39.6 
C 39.6 39.6 39.6 39.6 39.6 39.6 
C 39.6 39.6 39.6 39.6 39.6 39.6 
C 39.6 39.6 39.6 39.6 39.6 39.6 
C 39.6 39.6 39.6 39.6 39.6 39.6 
C 39.6 39.6 39.6 39.6 39.6 39.6 
C 39.6 39.6 39.6 39.6 39.6 39.6 
M 76.824 39.6 
z
"/>
  </clipPath>
 </defs>
</svg>
